<?xml version="1.0" encoding="utf-8"?>
<!-- Generator: Adobe Illustrator 27.5.0, SVG Export Plug-In . SVG Version: 6.00 Build 0)  -->
<svg version="1.1" id="BASE" xmlns="http://www.w3.org/2000/svg" xmlns:xlink="http://www.w3.org/1999/xlink" x="0px" y="0px"
	 viewBox="0 0 2196 2050" style="enable-background:new 0 0 2196 2050;" xml:space="preserve">
<g>
	<path style="fill:#F7A825;" d="M2049.383,1609.355v-0.079c-0.004-0.313-0.009-0.625-0.015-0.938
		c-0.001-0.058-0.003-0.118-0.004-0.176c-0.02-0.886-0.054-1.772-0.101-2.66c-0.008-0.141-0.014-0.281-0.021-0.422
		c-0.014-0.236-0.028-0.472-0.043-0.707l-0.031-0.448c-0.018-0.252-0.035-0.505-0.055-0.756c-0.008-0.1-0.017-0.2-0.024-0.3
		c-0.035-0.43-0.073-0.86-0.114-1.29c-0.019-0.201-0.038-0.402-0.058-0.603c-0.021-0.213-0.045-0.425-0.068-0.638
		c-0.02-0.188-0.041-0.374-0.063-0.563c-0.023-0.197-0.045-0.394-0.069-0.591c-0.028-0.23-0.057-0.46-0.086-0.689
		c-0.023-0.174-0.044-0.348-0.068-0.523c-0.049-0.37-0.102-0.74-0.156-1.109c-0.021-0.149-0.045-0.298-0.068-0.447
		c-0.041-0.266-0.081-0.533-0.124-0.8c-0.025-0.151-0.049-0.303-0.074-0.454c-0.044-0.268-0.091-0.536-0.137-0.804
		c-0.025-0.145-0.051-0.288-0.076-0.433c-0.071-0.389-0.143-0.78-0.219-1.17c-0.016-0.087-0.034-0.173-0.052-0.26
		c-0.063-0.322-0.126-0.642-0.193-0.964c-0.029-0.14-0.059-0.28-0.088-0.42c-0.058-0.275-0.117-0.55-0.179-0.824
		c-0.031-0.145-0.063-0.29-0.096-0.434c-0.07-0.305-0.14-0.609-0.212-0.914c-0.024-0.102-0.047-0.205-0.072-0.309
		c-0.095-0.397-0.194-0.794-0.295-1.192c-0.028-0.11-0.058-0.221-0.086-0.332c-0.079-0.309-0.162-0.619-0.245-0.928
		c-0.031-0.118-0.063-0.237-0.096-0.355c-0.085-0.312-0.172-0.623-0.26-0.935c-0.03-0.107-0.06-0.216-0.091-0.323
		c-0.116-0.402-0.234-0.803-0.355-1.205c-0.025-0.085-0.052-0.169-0.077-0.254c-0.1-0.326-0.202-0.654-0.305-0.982
		c-0.039-0.121-0.077-0.243-0.116-0.365c-0.095-0.296-0.192-0.591-0.29-0.888c-0.042-0.127-0.085-0.254-0.126-0.38
		c-0.135-0.402-0.273-0.804-0.414-1.205l-154.569-438.785c-4.335-12.234-11.158-23.329-19.918-32.642
		c-6.699-7.099-14.476-13.186-23.205-17.95l-172.133-94.197c-0.018-1.195-0.062-2.392-0.126-3.593
		c-0.003-0.047-0.005-0.094-0.008-0.143c-0.016-0.295-0.035-0.59-0.054-0.885c-0.005-0.079-0.01-0.157-0.016-0.237
		c-0.02-0.299-0.04-0.599-0.064-0.9c0-0.003-0.002-0.007-0.002-0.011c-0.048-0.62-0.103-1.241-0.164-1.862
		c-0.008-0.075-0.015-0.15-0.023-0.225c-0.025-0.259-0.053-0.518-0.082-0.777c-0.015-0.14-0.031-0.281-0.047-0.422
		c-0.028-0.241-0.056-0.483-0.086-0.724c-0.018-0.151-0.038-0.304-0.057-0.455c-0.044-0.353-0.092-0.706-0.14-1.059
		c-0.033-0.236-0.066-0.471-0.101-0.708c-0.029-0.2-0.06-0.402-0.091-0.604c-0.031-0.197-0.06-0.395-0.094-0.592
		c-0.032-0.207-0.067-0.415-0.101-0.622c-0.034-0.201-0.068-0.402-0.103-0.603c-0.033-0.192-0.066-0.385-0.101-0.578
		c-0.063-0.346-0.127-0.692-0.193-1.039c-0.031-0.163-0.064-0.324-0.096-0.485c-0.052-0.268-0.106-0.535-0.161-0.803
		c-0.034-0.169-0.071-0.338-0.108-0.507c-0.052-0.246-0.104-0.492-0.158-0.738c-0.036-0.158-0.07-0.315-0.105-0.472
		c-0.069-0.303-0.138-0.605-0.211-0.908c-0.024-0.103-0.047-0.206-0.072-0.309c-0.093-0.388-0.189-0.776-0.287-1.164
		c-0.037-0.141-0.073-0.284-0.11-0.426c-0.072-0.274-0.143-0.547-0.217-0.821c-0.038-0.146-0.078-0.291-0.117-0.436
		c-0.08-0.287-0.159-0.575-0.241-0.862c-0.033-0.12-0.067-0.239-0.101-0.358c-0.114-0.394-0.228-0.787-0.347-1.18
		c-0.034-0.112-0.069-0.224-0.103-0.336c-0.094-0.307-0.189-0.615-0.286-0.923c-0.039-0.121-0.077-0.243-0.116-0.364
		c-0.095-0.296-0.192-0.593-0.29-0.888c-0.042-0.128-0.083-0.254-0.126-0.381c-0.136-0.402-0.273-0.804-0.414-1.205
		l-154.571-438.785c-4.334-12.234-11.158-23.328-19.916-32.642c-6.701-7.099-14.477-13.186-23.205-17.95l-451.572-247.116
		c-8.421-4.611-17.428-7.838-26.709-9.682c-10.911-2.182-22.192-2.397-33.317-0.523l-0.615,0.092l-0.645,0.092l-71.86,12.879
		l-280.311,50.192c-15.891,2.858-30.398,9.651-42.416,19.456c-14.907,12.078-26.002,28.737-31.227,47.978L408.845,807.178
		c-6.393,23.605-3.167,47.948,7.745,68.356c8.329,15.645,21.146,29.016,37.559,37.99l34.861,19.076l-142.001,25.426
		c-15.891,2.858-30.398,9.651-42.415,19.456c-14.907,12.079-26.002,28.737-31.228,47.978l-123.712,457.074
		c-6.393,23.605-3.167,47.947,7.745,68.356c8.329,15.644,21.147,29.015,37.559,37.989l107.241,58.682l26.085,14.274L616.9,1819.767
		c8.176,4.488,16.935,7.684,25.942,9.528c8.913,1.844,18.072,2.397,27.231,1.567l0.891-0.061l622.692-61.776
		c3.573,0.093,7.161-0.017,10.749-0.342l0.892-0.062l632.943-62.793l26.924-2.675c44.287-4.385,76.943-38.434,83.15-78.862
		c0.001-0.005,0.001-0.01,0.002-0.016c0.067-0.444,0.132-0.888,0.194-1.332c0.003-0.028,0.009-0.057,0.011-0.085
		c0.063-0.454,0.123-0.908,0.178-1.362c0.002-0.02,0.005-0.04,0.008-0.059c0.048-0.396,0.093-0.793,0.136-1.19
		c0.011-0.106,0.022-0.212,0.034-0.319c0.045-0.422,0.087-0.844,0.126-1.268c0.001-0.01,0.001-0.02,0.002-0.031
		c0.085-0.931,0.156-1.863,0.211-2.8c0.006-0.105,0.014-0.211,0.019-0.316c0.025-0.449,0.049-0.898,0.068-1.348
		c0.001-0.041,0.003-0.081,0.005-0.121c0.022-0.508,0.038-1.017,0.051-1.527v-0.002c0.011-0.478,0.019-0.958,0.023-1.438
		c0.001-0.09,0.001-0.18,0.003-0.27C2049.388,1610.325,2049.388,1609.841,2049.383,1609.355z"/>
	<path style="fill:#F59E26;" d="M265.523,1563.916c1.999-8.119,4.016-16.235,6.041-24.348
		c41.912-167.91,89.431-334.535,143.292-499.057l-110.263-63.028c-14.907,12.079-26.002,28.737-31.228,47.978l-123.712,457.074
		c-6.393,23.605-3.167,47.947,7.745,68.356c8.329,15.644,21.147,29.015,37.559,37.989l57.016,31.199
		C256.438,1601.345,260.919,1582.616,265.523,1563.916z"/>
	<path style="fill:#F59E26;" d="M376.269,1511.98c44.262-139.194,87.989-278.596,132.698-417.674l-50.396-28.807l-0.304-0.174
		c-50.367,154.734-95.142,311.289-134.9,469.105c-9.221,36.606-18.174,73.281-26.863,110.016l5.694,3.116l26.085,14.274
		c14.208-44,28.305-88.035,42.333-132.092C372.501,1523.823,374.386,1517.901,376.269,1511.98z"/>
	<path style="fill:#F59E26;" d="M549.159,1432.896c9.942-52.556-31.699-108.324-74.562-55.581
		c-31.138,38.316-50.525,98.205-62.186,148.285c-1.392,5.981-2.676,11.824-3.855,17.471c-3.251,15.572-5.716,31.845-1.796,47.263
		c3.919,15.417,15.696,29.833,31.414,32.285c19.737,3.079,37.289-12.755,48.711-29.144c16.705-23.968,27.488-51.389,37.361-78.968
		c1.464-4.091,2.909-8.186,4.35-12.274C536.62,1479.476,544.672,1456.609,549.159,1432.896z"/>
	<path style="fill:#F59E26;" d="M629.04,1448.321c5.022-14.246,10.063-28.559,12.871-43.404
		c6.224-32.897-19.843-67.806-46.673-34.791c-21.819,26.848-34.421,70.62-41.339,103.757c-2.035,9.748-3.578,19.934-1.124,29.585
		c0.695,2.733,1.785,5.415,3.212,7.892c3.614,6.269,9.399,11.217,16.452,12.318c11.805,1.841,22.362-7.126,29.514-16.877
		c0.333-0.454,0.659-0.91,0.977-1.366C614.938,1488.206,622.058,1468.128,629.04,1448.321z"/>
	<path style="fill:#F59E26;" d="M511.164,944.722c1.336-5.603,2.673-11.206,4.014-16.808c3.143-13.127,6.309-26.248,9.536-39.354
		c1.999-8.119,4.016-16.235,6.041-24.349c41.912-167.91,89.43-334.534,143.292-499.057l-110.263-63.027
		c-14.907,12.078-26.002,28.737-31.227,47.978L408.845,807.178c-6.393,23.605-3.167,47.948,7.745,68.356
		c8.329,15.645,21.146,29.016,37.559,37.99L489.01,932.6L511.164,944.722z"/>
	<path style="fill:#F59E26;" d="M629.807,854.389c1.885-5.922,3.77-11.844,5.653-17.766
		c44.261-139.194,87.989-278.596,132.698-417.673l-50.396-28.807l-0.305-0.174c-50.366,154.733-95.142,311.289-134.899,469.104
		c-4.984,19.784-9.888,39.588-14.715,59.41c-4.104,16.856-8.155,33.724-12.148,50.607l31.779,17.39v0
		c8.163-25.281,16.29-50.574,24.389-75.877C617.859,891.869,623.839,873.131,629.807,854.389z"/>
	<path style="fill:#FFDE18;" d="M2049.383,1609.355v-0.079c-0.004-0.313-0.009-0.625-0.015-0.938
		c-0.001-0.058-0.003-0.118-0.004-0.176c-0.02-0.886-0.054-1.772-0.101-2.66c-0.008-0.141-0.014-0.281-0.021-0.422
		c-0.014-0.236-0.028-0.472-0.043-0.707l-0.031-0.448c-0.018-0.252-0.035-0.505-0.055-0.756c-0.008-0.1-0.017-0.2-0.024-0.3
		c-0.035-0.43-0.073-0.86-0.114-1.29c-0.019-0.201-0.038-0.402-0.058-0.603c-0.021-0.213-0.045-0.425-0.068-0.638
		c-0.02-0.188-0.041-0.374-0.063-0.563c-0.023-0.197-0.045-0.394-0.069-0.591c-0.028-0.23-0.057-0.46-0.086-0.689
		c-0.023-0.174-0.044-0.348-0.068-0.523c-0.049-0.37-0.102-0.74-0.156-1.109c-0.021-0.149-0.045-0.298-0.068-0.447
		c-0.041-0.266-0.081-0.533-0.124-0.8c-0.025-0.151-0.049-0.303-0.074-0.454c-0.044-0.268-0.091-0.536-0.137-0.804
		c-0.025-0.145-0.051-0.288-0.076-0.433c-0.071-0.389-0.143-0.78-0.219-1.17c-0.016-0.087-0.034-0.173-0.052-0.26
		c-0.063-0.322-0.126-0.642-0.193-0.964c-0.029-0.14-0.059-0.28-0.088-0.42c-0.058-0.275-0.117-0.55-0.179-0.824
		c-0.031-0.145-0.063-0.29-0.096-0.434c-0.07-0.305-0.14-0.609-0.212-0.914c-0.024-0.102-0.047-0.205-0.072-0.309
		c-0.095-0.397-0.194-0.794-0.295-1.192c-0.028-0.11-0.058-0.221-0.086-0.332c-0.079-0.309-0.162-0.619-0.245-0.928
		c-0.031-0.118-0.063-0.237-0.096-0.355c-0.085-0.312-0.172-0.623-0.26-0.935c-0.03-0.107-0.06-0.216-0.091-0.323
		c-0.116-0.402-0.234-0.803-0.355-1.205c-0.025-0.085-0.052-0.169-0.077-0.254c-0.1-0.326-0.202-0.654-0.305-0.982
		c-0.039-0.121-0.077-0.243-0.116-0.365c-0.095-0.296-0.192-0.591-0.29-0.888c-0.042-0.127-0.085-0.254-0.126-0.38
		c-0.135-0.402-0.273-0.804-0.414-1.205l-154.569-438.785c-4.335-12.234-11.158-23.329-19.918-32.642
		c-6.699-7.099-14.476-13.186-23.205-17.95l-172.133-94.197c-0.018-1.195-0.062-2.392-0.126-3.593
		c-0.003-0.047-0.005-0.094-0.008-0.143c-0.016-0.295-0.035-0.59-0.054-0.885c-0.005-0.079-0.01-0.157-0.016-0.237
		c-0.02-0.299-0.04-0.599-0.064-0.9c0-0.003-0.002-0.007-0.002-0.011c-0.048-0.62-0.103-1.241-0.164-1.862
		c-0.008-0.075-0.015-0.15-0.023-0.225c-0.025-0.259-0.053-0.518-0.082-0.777c-0.015-0.14-0.031-0.281-0.047-0.422
		c-0.028-0.241-0.056-0.483-0.086-0.724c-0.018-0.151-0.038-0.304-0.057-0.455c-0.044-0.353-0.092-0.706-0.14-1.059
		c-0.033-0.236-0.066-0.471-0.101-0.708c-0.029-0.2-0.06-0.402-0.091-0.604c-0.031-0.197-0.06-0.395-0.094-0.592
		c-0.032-0.207-0.067-0.415-0.101-0.622c-0.034-0.201-0.068-0.402-0.103-0.603c-0.033-0.192-0.066-0.385-0.101-0.578
		c-0.063-0.346-0.127-0.692-0.193-1.039c-0.031-0.163-0.064-0.324-0.096-0.485c-0.052-0.268-0.106-0.535-0.161-0.803
		c-0.034-0.169-0.071-0.338-0.108-0.507c-0.052-0.246-0.104-0.492-0.158-0.738c-0.036-0.158-0.07-0.315-0.105-0.472
		c-0.069-0.303-0.138-0.605-0.211-0.908c-0.024-0.103-0.047-0.206-0.072-0.309c-0.093-0.388-0.189-0.776-0.287-1.164
		c-0.037-0.141-0.073-0.284-0.11-0.426c-0.072-0.274-0.143-0.547-0.217-0.821c-0.038-0.146-0.078-0.291-0.117-0.436
		c-0.08-0.287-0.159-0.575-0.241-0.862c-0.033-0.12-0.067-0.239-0.101-0.358c-0.114-0.394-0.228-0.787-0.347-1.18
		c-0.034-0.112-0.069-0.224-0.103-0.336c-0.094-0.307-0.189-0.615-0.286-0.923c-0.039-0.121-0.077-0.243-0.116-0.364
		c-0.095-0.296-0.192-0.593-0.29-0.888c-0.042-0.128-0.083-0.254-0.126-0.381c-0.136-0.402-0.273-0.804-0.414-1.205
		l-154.571-438.785c-4.334-12.234-11.158-23.328-19.916-32.642c-6.701-7.099-14.477-13.186-23.205-17.95l-451.572-247.116
		c-8.421-4.611-17.428-7.838-26.709-9.682c-10.911-2.182-22.192-2.397-33.317-0.523l-0.615,0.092l-0.645,0.092l-71.86,12.879
		l-280.311,50.192c-15.891,2.858-30.398,9.651-42.416,19.456l153.979,88.016l50.396,28.807l220.303,125.929L949.027,822.73
		l-13.554,95.519l-10.861,76.553l-22.58,159.138c-9.006-1.845-17.766-5.041-25.941-9.529l-15.17-8.301l-52.452-28.702
		L587.474,986.48v0l-31.779-17.39L489.009,932.6l-142.001,25.426c-15.891,2.858-30.398,9.651-42.415,19.456l153.978,88.016
		l50.396,28.807l220.303,125.928l-39.434,277.852l-46.995,331.21c8.913,1.844,18.072,2.397,27.231,1.567l0.891-0.061l622.692-61.776
		c3.573,0.093,7.161-0.017,10.749-0.342l0.892-0.062l632.943-62.793l26.924-2.675c44.287-4.385,76.943-38.434,83.15-78.862
		c0.001-0.005,0.001-0.01,0.002-0.016c0.067-0.444,0.132-0.888,0.194-1.332c0.003-0.028,0.009-0.057,0.011-0.085
		c0.063-0.454,0.123-0.908,0.178-1.362c0.002-0.02,0.005-0.04,0.008-0.059c0.048-0.396,0.093-0.793,0.136-1.19
		c0.011-0.106,0.022-0.212,0.034-0.319c0.045-0.422,0.087-0.844,0.126-1.268c0.001-0.01,0.001-0.02,0.002-0.031
		c0.085-0.931,0.156-1.863,0.211-2.8c0.006-0.105,0.014-0.211,0.019-0.316c0.025-0.449,0.049-0.898,0.068-1.348
		c0.001-0.041,0.003-0.081,0.005-0.121c0.022-0.508,0.038-1.017,0.051-1.527v-0.002c0.011-0.478,0.019-0.958,0.023-1.438
		c0.001-0.09,0.001-0.18,0.003-0.27C2049.388,1610.325,2049.388,1609.841,2049.383,1609.355z M1327.945,1409.3l-72.784-206.616
		c-4.334-12.233-11.158-23.329-19.917-32.642c-6.7-7.1-14.477-13.186-23.205-17.95l-38.072-20.834l121.644-12.068l67.993,38.865
		L1327.945,1409.3z"/>
	<path style="fill:#F59E26;" d="M755.849,902.616c11.414-19.972,19.785-41.668,27.588-63.463c1.464-4.092,2.909-8.187,4.35-12.274
		c8.023-22.759,16.075-45.625,20.562-69.339c9.942-52.556-31.699-108.324-74.562-55.581
		c-31.138,38.315-50.525,98.204-62.185,148.285c-1.392,5.981-2.675,11.823-3.855,17.471c-2.299,11.015-4.202,22.38-3.734,33.544
		v0.012c0.194,4.616,0.792,9.198,1.938,13.707c3.92,15.418,15.697,29.833,31.415,32.285c18.143,2.831,34.438-10.32,45.824-25.191
		c1-1.307,1.964-2.627,2.887-3.952C749.579,913.094,752.821,907.915,755.849,902.616z"/>
	<path style="fill:#F59E26;" d="M815.177,836.004c3.614,6.269,9.4,11.218,16.452,12.318c11.805,1.842,22.362-7.126,29.514-16.877
		c0.333-0.453,0.659-0.909,0.977-1.366c12.008-17.229,19.128-37.308,26.11-57.114c5.023-14.246,10.063-28.56,12.872-43.404
		c6.224-32.898-19.843-67.807-46.673-34.792c-21.82,26.848-34.422,70.621-41.339,103.758c-2.035,9.747-3.578,19.934-1.124,29.585
		C812.66,830.846,813.75,833.528,815.177,836.004z"/>
	<path style="fill:#FFEC0D;" d="M1330.832,1765.334l-26.925,2.674l-10.251,1.018c3.573,0.093,7.161-0.017,10.749-0.342l76.41-7.592
		l38.217-3.788c2.338-29.316,4.701-58.63,6.997-87.949c6.407-81.797,12.662-163.604,18.83-245.419
		c6.934-91.988,13.758-183.984,20.555-275.982l-101.811,10.102l-35.658,251.245l-0.004,0.025l-50.898-144.463l-21.883-62.179
		c-4.334-12.233-11.158-23.329-19.917-32.642l-72.685,7.21c7.14,17.951,14.182,35.941,21.096,53.981
		c11.886,31.015,23.423,62.164,34.573,93.453c10.751,30.171,21.141,60.471,31.125,90.907c0.411,1.251,0.817,2.503,1.226,3.755
		c2.508,7.696,4.975,15.405,7.412,23.123c15.013,47.546,28.932,95.415,45.011,142.619c2.188,6.423,4.413,12.833,6.688,19.228
		c17.912,50.332,37.674,99.925,58.401,149.123L1330.832,1765.334z"/>
	<path style="fill:#FFEC0D;" d="M1508.232,1231.005c-4.65,62.682-9.328,125.363-14.054,188.038
		c-8.383,111.138-16.925,222.264-25.775,333.366l47.917-4.75c3.127-63.313,6.318-126.623,9.705-189.923
		c2.544-47.55,5.182-95.096,7.931-142.637c1.832-31.671,3.713-63.339,5.652-95.004c3.689-60.236,7.583-120.46,11.729-180.665
		l-36.594,3.63C1512.577,1172.376,1510.407,1201.69,1508.232,1231.005z"/>
	<path style="fill:#FFEC0D;" d="M2049.383,1609.355v-0.079c-0.004-0.313-0.009-0.625-0.015-0.938
		c-0.001-0.058-0.003-0.118-0.004-0.176c-0.02-0.886-0.054-1.772-0.101-2.66c-0.008-0.141-0.014-0.281-0.021-0.422
		c-0.014-0.236-0.028-0.472-0.043-0.707l-0.031-0.448c-0.018-0.252-0.035-0.505-0.055-0.756c-0.008-0.1-0.017-0.2-0.024-0.3
		c-0.035-0.43-0.073-0.86-0.114-1.29c-0.019-0.201-0.038-0.402-0.058-0.603c-0.021-0.213-0.045-0.425-0.068-0.638
		c-0.02-0.188-0.041-0.374-0.063-0.563c-0.023-0.197-0.045-0.394-0.069-0.591c-0.028-0.23-0.057-0.46-0.086-0.689
		c-0.023-0.174-0.044-0.348-0.068-0.523c-0.049-0.37-0.102-0.74-0.156-1.109c-0.021-0.149-0.045-0.298-0.068-0.447
		c-0.041-0.266-0.081-0.533-0.124-0.8c-0.025-0.151-0.049-0.303-0.074-0.454c-0.044-0.268-0.091-0.536-0.137-0.804
		c-0.025-0.145-0.051-0.288-0.076-0.433c-0.071-0.389-0.143-0.78-0.219-1.17c-0.016-0.087-0.034-0.173-0.052-0.26
		c-0.063-0.322-0.126-0.642-0.193-0.964c-0.029-0.14-0.059-0.28-0.088-0.42c-0.058-0.275-0.117-0.55-0.179-0.824
		c-0.031-0.145-0.063-0.29-0.096-0.434c-0.07-0.305-0.14-0.609-0.212-0.914c-0.024-0.102-0.047-0.205-0.072-0.309
		c-0.095-0.397-0.194-0.794-0.295-1.192c-0.028-0.11-0.058-0.221-0.086-0.332c-0.079-0.309-0.162-0.619-0.245-0.928
		c-0.031-0.118-0.063-0.237-0.096-0.355c-0.085-0.312-0.172-0.623-0.26-0.935c-0.03-0.107-0.06-0.216-0.091-0.323
		c-0.116-0.402-0.234-0.803-0.355-1.205c-0.025-0.085-0.052-0.169-0.077-0.254c-0.1-0.326-0.202-0.654-0.305-0.982
		c-0.039-0.121-0.077-0.243-0.116-0.365c-0.095-0.296-0.192-0.591-0.29-0.888c-0.042-0.127-0.085-0.254-0.126-0.38
		c-0.135-0.402-0.273-0.804-0.414-1.205l-132.686-376.607l-21.883-62.178c-4.335-12.234-11.158-23.329-19.918-32.642l-72.684,7.21
		c7.14,17.95,14.181,35.941,21.095,53.981c23.347,60.923,45.362,122.363,65.697,184.359
		c20.592,62.779,38.177,126.455,60.338,188.725c17.912,50.332,37.674,99.925,58.401,149.124
		c27.61-15.851,45.531-45.136,46.881-77.095c0.001-0.041,0.003-0.081,0.005-0.121c0.022-0.508,0.038-1.017,0.051-1.527v-0.002
		c0.011-0.478,0.019-0.958,0.023-1.438c0.001-0.09,0.001-0.18,0.003-0.27C2049.388,1610.325,2049.388,1609.841,2049.383,1609.355z"
		/>
	<path style="fill:#FFEC0D;" d="M1615.861,1248.251c-49.092,57.429-35.323,176.127-34.327,246.26
		c0.544,38.326,2.677,77.25,15.251,113.459c2.453,7.064,5.356,14.1,10.002,19.96c10.57,13.336,29.392,18.638,46.051,15.167
		c16.659-3.472,31.028-14.737,40.709-28.731c15.258-22.053,19.473-49.665,23.273-76.21c10.436-72.911,20.798-147.061,9.953-219.911
		C1718.331,1261.54,1672.46,1182.041,1615.861,1248.251z"/>
	<path style="fill:#FFEC0D;" d="M689.836,1498.086l-46.995,331.21c8.913,1.844,18.072,2.397,27.231,1.567l76.409-7.591l38.216-3.79
		c2.339-29.316,4.701-58.63,6.998-87.949c5.748-73.386,11.374-146.782,16.924-220.184c0.618-8.165,1.234-16.331,1.85-24.496
		c0.018-0.246,0.037-0.492,0.055-0.739c5.683-75.374,11.289-150.754,16.869-226.136c1.23-16.615,2.459-33.23,3.686-49.845
		l-101.811,10.101L689.836,1498.086z"/>
	<path style="fill:#FFEC0D;" d="M880.41,1205.238c-2.166,29.316-4.335,58.632-6.51,87.947
		c-4.65,62.681-9.327,125.361-14.055,188.036c-0.018,0.247-0.037,0.493-0.056,0.74c-1.483,19.662-2.97,39.324-4.465,58.985
		c-6.932,91.226-13.99,182.442-21.254,273.641l47.917-4.751c3.127-63.313,6.318-126.623,9.704-189.922
		c1.023-19.122,2.063-38.242,3.117-57.363c0.957-17.37,1.928-34.738,2.914-52.106c0.614-10.81,1.234-21.621,1.859-32.431
		c0.014-0.246,0.028-0.492,0.043-0.738c1.832-31.671,3.712-63.34,5.652-95.004c3.689-60.236,7.583-120.459,11.729-180.664
		l-17.144,1.701L880.41,1205.238z"/>
	<path style="fill:#FFEC0D;" d="M1085.466,1351.673c-6.293-18.858-15.893-37.256-27.954-49.872
		c-14.199-14.852-31.811-21.69-51.46-11.833c-7.876,3.951-16.08,10.585-24.522,20.461c-32.565,38.095-37.469,103.151-36.79,163.106
		c0.179,15.768,0.744,31.18,1.292,45.657c0.511,13.464,1.009,26.12,1.171,37.496c0.166,11.705,0.481,23.465,1.195,35.186
		c1.625,26.662,5.321,53.123,14.055,78.272c2.453,7.064,5.356,14.1,10.002,19.96c10.57,13.336,29.392,18.637,46.052,15.167
		c16.659-3.471,31.027-14.737,40.709-28.731c4.039-5.839,7.305-12.066,9.993-18.561c7.467-18.037,10.486-38.131,13.279-57.65
		c1.964-13.719,3.925-27.481,5.742-41.271c4.411-33.461,7.975-67.081,8.685-100.618c0.554-26.095-0.622-52.141-4.474-78.021
		C1091.067,1371.201,1088.704,1361.376,1085.466,1351.673z"/>
	<path style="fill:#FFEC0D;" d="M1005.673,1147.915l38.216-3.788c2.141-26.847,4.301-53.693,6.414-80.542
		c0.194-2.469,0.39-4.938,0.584-7.407c1.921-24.533,3.828-49.068,5.724-73.604c2.617-33.865,5.212-67.732,7.788-101.599
		c1.78-23.405,3.552-46.811,5.316-70.216c6.934-91.988,13.758-183.985,20.554-275.982l-101.81,10.102L949.027,822.73l-13.554,95.519
		l-10.861,76.553l-22.58,159.138c8.913,1.844,18.072,2.398,27.231,1.567l66.547-6.612L1005.673,1147.915z"/>
	<path style="fill:#FFEC0D;" d="M1176.195,526.253l-13.243,1.314l-23.351,2.316c-2.166,29.315-4.335,58.631-6.51,87.946
		c-4.65,62.682-9.327,125.363-14.055,188.038c-1.665,22.075-3.336,44.149-5.014,66.223c-3.481,45.76-6.995,91.516-10.55,137.27
		c0,0.001,0,0.001,0,0.001c-2.069,26.633-4.153,53.267-6.253,79.899c-1.313,16.657-2.63,33.316-3.958,49.973l16.309-1.617
		l31.608-3.134c0.34-6.869,0.68-13.738,1.02-20.608c1.325-26.692,2.664-53.385,4.027-80.075c1.518-29.748,3.065-59.495,4.656-89.24
		c1.424-26.618,2.877-53.234,4.363-79.849c1.169-20.931,2.359-41.86,3.57-62.789c1.832-31.67,3.712-63.338,5.652-95.003
		C1168.155,646.682,1172.049,586.458,1176.195,526.253z"/>
	<path style="fill:#FFEC0D;" d="M1674.235,995.714c-0.019-1.194-0.059-2.391-0.123-3.591c-0.003-0.047-0.005-0.094-0.008-0.143
		c-0.016-0.295-0.035-0.59-0.054-0.885c-0.005-0.079-0.01-0.157-0.016-0.237c-0.02-0.299-0.04-0.599-0.064-0.9
		c0-0.003-0.002-0.007-0.002-0.011c-0.048-0.62-0.103-1.241-0.164-1.862c-0.008-0.075-0.015-0.15-0.023-0.225
		c-0.025-0.259-0.053-0.518-0.082-0.777c-0.015-0.14-0.031-0.281-0.047-0.422c-0.028-0.241-0.056-0.483-0.086-0.724
		c-0.018-0.151-0.038-0.304-0.057-0.455c-0.044-0.353-0.092-0.706-0.14-1.059c-0.033-0.236-0.066-0.471-0.101-0.708
		c-0.029-0.2-0.06-0.402-0.091-0.604c-0.031-0.197-0.06-0.395-0.094-0.592c-0.032-0.207-0.067-0.415-0.101-0.622
		c-0.034-0.201-0.068-0.402-0.103-0.603c-0.033-0.192-0.066-0.385-0.101-0.578c-0.063-0.346-0.127-0.692-0.193-1.039
		c-0.031-0.163-0.064-0.324-0.096-0.485c-0.052-0.268-0.106-0.535-0.161-0.803c-0.034-0.169-0.071-0.338-0.108-0.507
		c-0.052-0.246-0.104-0.492-0.158-0.738c-0.036-0.158-0.07-0.315-0.105-0.472c-0.069-0.303-0.138-0.605-0.211-0.908
		c-0.024-0.103-0.047-0.206-0.072-0.309c-0.093-0.388-0.189-0.776-0.287-1.164c-0.037-0.141-0.073-0.284-0.11-0.426
		c-0.072-0.274-0.143-0.547-0.217-0.821c-0.038-0.146-0.078-0.291-0.117-0.436c-0.08-0.287-0.159-0.575-0.241-0.862
		c-0.033-0.12-0.067-0.239-0.101-0.358c-0.114-0.394-0.228-0.787-0.347-1.18c-0.034-0.112-0.069-0.224-0.103-0.336
		c-0.094-0.307-0.189-0.615-0.286-0.923c-0.039-0.121-0.077-0.243-0.116-0.364c-0.095-0.296-0.192-0.593-0.29-0.888
		c-0.042-0.128-0.083-0.254-0.126-0.381c-0.136-0.402-0.273-0.804-0.414-1.205l-132.687-376.606l-21.884-62.179
		c-4.334-12.234-11.158-23.328-19.916-32.642l-72.686,7.21c7.141,17.951,14.183,35.942,21.095,53.982
		c23.349,60.923,45.363,122.363,65.699,184.358c20.592,62.779,38.177,126.455,60.336,188.725c1.345,3.779,2.702,7.554,4.067,11.325
		c16.821,46.452,35.164,92.294,54.334,137.799C1656.405,1061.365,1674.747,1029.698,1674.235,995.714z"/>
	<path style="fill:#FFEC0D;" d="M1206.392,881.334c0.545,38.326,2.676,77.251,15.251,113.458c2.453,7.065,5.356,14.1,10.001,19.961
		c10.57,13.336,29.393,18.637,46.052,15.167c16.659-3.471,31.026-14.737,40.709-28.731c15.257-22.053,19.473-49.665,23.272-76.211
		c4.443-31.039,8.871-62.304,11.656-93.596c3.757-42.213,4.524-84.478-1.704-126.315c-8.441-56.705-54.312-136.203-110.91-69.992
		c-43.509,50.898-37.642,149.918-35.051,220.606C1206.001,864.752,1206.28,873.358,1206.392,881.334z"/>
	<path style="fill:#FDC322;" d="M1173.966,1131.258l2.828-0.281c-0.009-0.008-0.019-0.016-0.028-0.024l-2.842,0.282l-64.355,6.38
		l-16.309,1.617l-44.733,4.434l-4.639,0.461l-38.216,3.788l-9.862,0.98l-66.547,6.612c-9.16,0.83-18.318,0.277-27.231-1.567
		c-9.006-1.845-17.766-5.041-25.941-9.529l-15.17-8.301l-52.452-28.702L587.474,986.48v0l-31.779-17.39L489.009,932.6
		l-142.001,25.426c-15.891,2.858-30.398,9.651-42.415,19.456l153.978,88.016l50.396,28.807l220.303,125.928l111.886-11.102
		l3.035-0.301l36.218-3.593l19.451-1.929l82.294-8.162l52.575-5.215l60.108-5.962l67.721-6.718l72.685-7.21
		c-6.7-7.1-14.477-13.186-23.205-17.95L1173.966,1131.258z"/>
	<path style="fill:#FDC322;" d="M1846.371,1089.913l-172.133-94.197c0.714,46.86-34.397,89.329-84.214,94.262l-26.925,2.674
		L1463,1102.576l-167.417,16.598l-1.487,0.148c0.003,0.006,0.004,0.012,0.006,0.019l1.508-0.15l67.993,38.865l114.921-11.403
		l36.218-3.593l36.594-3.63l318.24-31.567C1862.877,1100.764,1855.1,1094.677,1846.371,1089.913z"/>
	<path style="fill:#FDC322;" d="M768.158,418.95l220.303,125.929l114.922-11.403l36.218-3.592l23.351-2.316l13.243-1.314
		l245.554-24.357l72.686-7.21c-6.701-7.099-14.477-13.186-23.205-17.95l-451.572-247.116c-8.421-4.611-17.428-7.838-26.709-9.682
		c-10.911-2.182-22.192-2.397-33.317-0.523l-0.615,0.092l-0.645,0.092l-71.86,12.879l-280.311,50.192
		c-15.891,2.858-30.398,9.651-42.416,19.456l153.979,88.016L768.158,418.95z"/>
</g>
</svg>
